Love for All and Sharing is the first step to solving all the problems of humanity.

Website I want to share. 
               
   http://www.scenetime.com
 
 
  Credit to EVERYONE for sharing and seeding back
 especially to SCENETIME.COM where i get all my 
 downloads.


 support www.scenetime.com to grow faster.

                             
                                                            
                                                   

.                 ..................................NFO:....................................*******************************************************************************
                 Arabian.Nights.2000.DVDRip.AC3.X264-BARC0DE
*******************************************************************************

-------------------------------------------------------------------------------
                              General Information
-------------------------------------------------------------------------------
Type.................: Movie
Name.................: Arabian Nights
Movie Information....: http://www.imdb.com/title/tt0181199/
Genre................: Family | Fantasy | Adventure
-------------------------------------------------------------------------------
                                    PLOT
-------------------------------------------------------------------------------
To cure a prince's murderous madness, Scheherezade tells him a series of wonderous 
stories.

-------------------------------------------------------------------------------
                                    CAST
-------------------------------------------------------------------------------
Mili Avital 	... 	Scheherezade 
Alan Bates 	... 	Storyteller 
James Frain 	... 	Schahzenan / Harun al-Rashid 
Tchky Karyo 	... 	Black Coda 
Jason Scott Lee 	... 	Aladdin 
John Leguizamo 	... 	Genie of the Lamp / Genie of the Ring 
Vanessa Mae 	... 	Princess Zobeide 
Dougray Scott 	... 	Sultan Shahryar / Amin 
Rufus Sewell 	... 	Ali Baba 
Jim Carter 	... 	Ja'Far 
Peter Guinness 	... 	Chief Executioner 
Hugh Quarshie 	... 	Mustappa 
Pik Sen Lim 	... 	Aladdin's Mother (as Pik-Sen Lim) 
Amira Casar 	... 	Morgiana 
Andy Serkis 	... 	Kasim

-------------------------------------------------------------------------------
                                    MEDiA iNFO
-------------------------------------------------------------------------------

General
Complete name                    : Arabian.Nights.2000.DVDRip.AC3.X264-BARC0DE.mkv
Format                           : Matroska
File size                        : 2.16 GiB
Duration                         : 2h 55mn
Overall bit rate                 : 1 759 Kbps


Video
ID                               : 1
Format                           : AVC
Format/Info                      : Advanced Video Codec
Format profile                   : Main@L3.0
Format settings, CABAC           : No
Format settings, ReFrames        : 2 frames
Format settings, GOP             : M=2, N=3
Muxing mode                      : Container profile=Unknown@3.0
Codec ID                         : V_MPEG4/ISO/AVC
Duration                         : 2h 55mn
Bit rate                         : 1 538 Kbps
Width                            : 720 pixels
Height                           : 544 pixels
Display aspect ratio             : 4:3
Frame rate                       : 25.000 fps
Color space                      : YUV
Chroma subsampling               : 4:2:0
Bit depth                        : 8 bits
Scan type                        : Progressive
Bits/(Pixel*Frame)               : 0.157
Stream size                      : 1.84 GiB (85%)
Writing library                  : x264 core 79


Audio
ID                               : 2
Format                           : AC-3
Format/Info                      : Audio Coding 3
Mode extension                   : CM (complete main)
Codec ID                         : A_AC3
Duration                         : 2h 55mn
Bit rate mode                    : Constant
Bit rate                         : 224 Kbps
Channel(s)                       : 2 channels
Channel positions                : Front: L R
Sampling rate                    : 48.0 KHz
Stream size                      : 282 MiB (13%)
Language                         : English

Menu
00:00:00.000                     : Chapter 1
00:20:49.600                     : Chapter 2
00:39:34.360                     : Chapter 3
00:56:24.720                     : Chapter 4
01:28:21.990                     : Chapter 5
01:51:48.079                     : Chapter 6
02:10:19.319                     : Chapter 7
02:31:01.079                     : Chapter 8